<?xml version="1.0" encoding="utf-8"?>
<!-- Generator: Adobe Illustrator 21.0.2, SVG Export Plug-In . SVG Version: 6.00 Build 0)  -->
<svg version="1.1" id="Layer_1" xmlns="http://www.w3.org/2000/svg" xmlns:xlink="http://www.w3.org/1999/xlink" x="0px" y="0px"
	 viewBox="0 0 226.8 226.8" style="enable-background:new 0 0 226.8 226.8;" xml:space="preserve">
<g>
	<path d="M38,119.6c3,18.9,19.2,33.3,38.8,33.3h13.9c3.5,0,6.3-2.8,6.3-6.3V80c0-3.5-2.8-6.3-6.3-6.3H77.1C57.4,73.7,41,88,38.2,107
		H12c-3.5,0-6.3,2.8-6.3,6.3s2.8,6.3,6.3,6.3H38z"/>
	<path d="M115.2,123.9c-3.5,0-6.3,2.8-6.3,6.3s2.8,6.3,6.3,6.3h14.6v10.3c0,3.5,2.8,6.3,6.3,6.3h13.6c19.7,0,36.1-14.4,38.8-33.3
		h26.2c3.5,0,6.3-2.8,6.3-6.3s-2.8-6.3-6.3-6.3h-26c-3-18.9-19.2-33.3-38.8-33.3h-13.9c-3.5,0-6.3,2.8-6.3,6.3v10.3h-14.6
		c-3.5,0-6.3,2.8-6.3,6.3s2.8,6.3,6.3,6.3h14.6v20.7H115.2L115.2,123.9z"/>
</g>
</svg>
