<?xml version="1.0" encoding="utf-8"?>
<!-- Generator: Adobe Illustrator 21.0.2, SVG Export Plug-In . SVG Version: 6.00 Build 0)  -->
<svg version="1.1" id="Layer_1" xmlns="http://www.w3.org/2000/svg" xmlns:xlink="http://www.w3.org/1999/xlink" x="0px" y="0px"
	 viewBox="0 0 100 125" style="enable-background:new 0 0 100 125;" xml:space="preserve">
<g>
	<path d="M20.1,52.5c1.2,7.5,7.6,13.2,15.4,13.2H41c1.4,0,2.5-1.1,2.5-2.5V36.8c0-1.4-1.1-2.5-2.5-2.5h-5.4
		c-7.8,0-14.3,5.7-15.4,13.2H9.8c-1.4,0-2.5,1.1-2.5,2.5s1.1,2.5,2.5,2.5H20.1z"/>
	<path d="M50.7,54.2c-1.4,0-2.5,1.1-2.5,2.5s1.1,2.5,2.5,2.5h5.8v4.1c0,1.4,1.1,2.5,2.5,2.5h5.4c7.8,0,14.3-5.7,15.4-13.2h10.4
		c1.4,0,2.5-1.1,2.5-2.5s-1.1-2.5-2.5-2.5H79.9c-1.2-7.5-7.6-13.2-15.4-13.2H59c-1.4,0-2.5,1.1-2.5,2.5V41h-5.8
		c-1.4,0-2.5,1.1-2.5,2.5s1.1,2.5,2.5,2.5h5.8v8.2H50.7L50.7,54.2z"/>
</g>
</svg>
