<?xml version="1.0" encoding="utf-8"?>
<!-- Generator: Adobe Illustrator 21.0.2, SVG Export Plug-In . SVG Version: 6.00 Build 0)  -->
<svg version="1.1" id="Layer_1" xmlns="http://www.w3.org/2000/svg" xmlns:xlink="http://www.w3.org/1999/xlink" x="0px" y="0px"
	 viewBox="0 0 226.8 226.8" style="enable-background:new 0 0 226.8 226.8;" xml:space="preserve">
<path d="M203,26.8l0-0.1L142.4,8.5L84.3,25.9l-59.4-18v0l-7.4-2.2v191.9l66.8,20.9l58.1-17.4l49.4,14.8l0,0l17.4,5.2v-18.2V28.4
	L203,26.8z M106.7,150.2l-2.4-24.4l10-3.5h77.5v14.4L106.7,150.2z M141.4,85.3h50.4v19.5h-47.5L141.4,85.3z M191.8,41.5v26.3h-53
	L133,29.5l9.4-2.8L191.8,41.5z M116.2,34.6l10.6,70.2h-15.4l-29.7,10.5L65.5,38.4l18.8,5.7L116.2,34.6z M34.9,29.2l11.5,3.5
	L65,121.1l-30.1,10.6L34.9,29.2L34.9,29.2z M34.9,184.8v-34.6l52.4-18.5l6.6,65.7l-9.6,2.9L34.9,184.8z M111,192.3l-2.5-24.8
	l38.5-6.1v22.8l-4.5-1.4L111,192.3z M164.4,189.4v-30.8l27.5-4.4v43.4L164.4,189.4z"/>
</svg>
