<svg width="133" height="133" xmlns="http://www.w3.org/2000/svg"><g transform="translate(3 2)" stroke="#000" fill="none" fill-rule="evenodd"><circle stroke-width="6" cx="63.264" cy="64.264" r="63.264"/><path d="M63.755 1.331c-37.475 0-44.668 36.634-44.673 62.914-.004 26.28 7.36 63.858 44.673 63.858 37.312 0 45.366-44.635 45.366-63.386 0-18.75-7.891-63.386-45.366-63.386z" stroke-width="4"/><path d="M.76 65.154c0 37.475 36.634 44.668 62.913 44.673 26.28.004 63.859-7.36 63.859-44.673 0-37.312-44.635-45.366-63.386-45.366C45.395 19.788.76 27.68.76 65.154z" stroke-width="4"/><path d="M.393 65.15c0 14.762 29.266 23.752 63.72 23.752 34.452 0 63.718-10.061 63.718-23.752 0-13.69-33.08-24.472-64.174-24.472-31.094 0-63.264 9.71-63.264 24.472z" stroke-width="4"/><path d="M63.708.98C48.946.98 39.956 30.248 39.956 64.7s10.061 63.72 23.752 63.72c13.69 0 24.472-33.08 24.472-64.175C88.18 33.151 78.47.981 63.708.981zm.047-.58v126.834" stroke-width="4"/><path d="M.5 64.5h126.036" stroke-width="4" stroke-linecap="square"/></g></svg>