<?xml version="1.0" encoding="utf-8"?>
<!-- Generator: Adobe Illustrator 21.0.2, SVG Export Plug-In . SVG Version: 6.00 Build 0)  -->
<svg version="1.1" id="Layer_1" xmlns="http://www.w3.org/2000/svg" xmlns:xlink="http://www.w3.org/1999/xlink" x="0px" y="0px"
	 viewBox="0 0 100 125" style="enable-background:new 0 0 100 125;" xml:space="preserve">
<path d="M87.4,13.8L87.4,13.8L62.1,6.2l-24.3,7.3L13,5.9v0L9.9,5v80.2l27.9,8.7l24.3-7.3l20.6,6.2l0,0l7.3,2.2v-7.6V14.5L87.4,13.8z
	 M47.2,65.4l-1-10.2l4.2-1.5h32.4v6L47.2,65.4z M61.7,38.3h21.1v8.2H62.9L61.7,38.3z M82.8,20v11H60.6l-2.4-16l3.9-1.2L82.8,20z
	 M51.2,17.1l4.4,29.3h-6.4l-12.4,4.4L30,18.7l7.9,2.4L51.2,17.1z M17.2,14.8l4.8,1.5l7.8,36.9l-12.6,4.4L17.2,14.8L17.2,14.8z
	 M17.2,79.8V65.4l21.9-7.7l2.7,27.4l-4,1.2L17.2,79.8z M49,83l-1-10.3L64,70.1v9.5L62.1,79L49,83z M71.3,81.8V68.9l11.5-1.8v18.2
	L71.3,81.8z"/>
</svg>
