<?xml version="1.0" encoding="utf-8"?>
<!-- Generator: Adobe Illustrator 21.0.2, SVG Export Plug-In . SVG Version: 6.00 Build 0)  -->
<svg version="1.1" id="Layer_1" xmlns="http://www.w3.org/2000/svg" xmlns:xlink="http://www.w3.org/1999/xlink" x="0px" y="0px"
	 viewBox="0 0 226.8 226.8" style="enable-background:new 0 0 226.8 226.8;" xml:space="preserve">
<g>
	<g>
		<g>
			<g>
				<path d="M77.4,186.1H38.1V135c0-10.8,8.8-19.6,19.6-19.6c10.8,0,19.6,8.8,19.6,19.6V186.1z M51.2,173h13.1v-38
					c0-3.6-2.9-6.5-6.5-6.5c-3.6,0-6.5,2.9-6.5,6.5L51.2,173L51.2,173z"/>
			</g>
		</g>
		<g>
			<g>
				<path d="M44.7,95c0-7.2,5.9-13.1,13.1-13.1c7.2,0,13.1,5.9,13.1,13.1c0,7.2-5.9,13.1-13.1,13.1C50.5,108.1,44.7,102.2,44.7,95z"
					/>
			</g>
		</g>
	</g>
	<g>
		<g>
			<g>
				<path d="M182,186.1h-39.2V135c0-10.8,8.8-19.6,19.6-19.6c10.8,0,19.6,8.8,19.6,19.6L182,186.1L182,186.1z M155.8,173h13.1v-38
					c0-3.6-2.9-6.5-6.5-6.5c-3.6,0-6.5,2.9-6.5,6.5L155.8,173L155.8,173z"/>
			</g>
		</g>
		<g>
			<g>
				<path d="M149.3,95c0-7.2,5.9-13.1,13.1-13.1c7.2,0,13.1,5.9,13.1,13.1c0,7.2-5.9,13.1-13.1,13.1
					C155.1,108.1,149.3,102.2,149.3,95z"/>
			</g>
		</g>
	</g>
	<g>
		<g>
			<g>
				<path d="M129.7,150.4H90.4V99.3c0-10.8,8.8-19.6,19.6-19.6c10.8,0,19.6,8.8,19.6,19.6V150.4z M103.5,137.3h13.1v-38
					c0-3.6-2.9-6.5-6.5-6.5s-6.5,2.9-6.5,6.5V137.3z"/>
			</g>
		</g>
		<g>
			<g>
				<path d="M97,59.2c0-7.2,5.9-13.1,13.1-13.1c7.2,0,13.1,5.9,13.1,13.1s-5.9,13.1-13.1,13.1C102.8,72.3,97,66.5,97,59.2z"/>
			</g>
		</g>
	</g>
	<g>
		<path d="M220.5,221.1H6.3V75.3L113.4,5.7l107.1,69.6L220.5,221.1L220.5,221.1z M19.4,208h188V82.4l-94-61.1l-94,61.1V208z"/>
	</g>
</g>
</svg>
