<?xml version="1.0" encoding="utf-8"?>
<!-- Generator: Adobe Illustrator 21.0.2, SVG Export Plug-In . SVG Version: 6.00 Build 0)  -->
<svg version="1.1" id="Layer_1" xmlns="http://www.w3.org/2000/svg" xmlns:xlink="http://www.w3.org/1999/xlink" x="0px" y="0px"
	 viewBox="0 0 90 97.2" style="enable-background:new 0 0 90 97.2;" xml:space="preserve">
<g>
	<g>
		<g>
			<g>
				<path d="M32,65.1H17.8V46.7c0-3.9,3.2-7.1,7.1-7.1c3.9,0,7.1,3.2,7.1,7.1V65.1z M22.5,60.4h4.7V46.7c0-1.3-1.1-2.4-2.4-2.4
					c-1.3,0-2.4,1.1-2.4,2.4L22.5,60.4L22.5,60.4z"/>
			</g>
		</g>
		<g>
			<g>
				<path d="M20.2,32.3c0-2.6,2.1-4.7,4.7-4.7c2.6,0,4.7,2.1,4.7,4.7c0,2.6-2.1,4.7-4.7,4.7C22.3,37,20.2,34.9,20.2,32.3z"/>
			</g>
		</g>
	</g>
	<g>
		<g>
			<g>
				<path d="M69.7,65.1H55.5V46.7c0-3.9,3.2-7.1,7.1-7.1c3.9,0,7.1,3.2,7.1,7.1L69.7,65.1L69.7,65.1z M60.2,60.4H65V46.7
					c0-1.3-1.1-2.4-2.4-2.4c-1.3,0-2.4,1.1-2.4,2.4L60.2,60.4L60.2,60.4z"/>
			</g>
		</g>
		<g>
			<g>
				<path d="M57.9,32.3c0-2.6,2.1-4.7,4.7-4.7c2.6,0,4.7,2.1,4.7,4.7c0,2.6-2.1,4.7-4.7,4.7C60,37,57.9,34.9,57.9,32.3z"/>
			</g>
		</g>
	</g>
	<g>
		<g>
			<g>
				<path d="M50.8,52.2H36.7V33.8c0-3.9,3.2-7.1,7.1-7.1c3.9,0,7.1,3.2,7.1,7.1V52.2z M41.4,47.5h4.7V33.8c0-1.3-1.1-2.4-2.4-2.4
					s-2.4,1.1-2.4,2.4V47.5z"/>
			</g>
		</g>
		<g>
			<g>
				<path d="M39,19.4c0-2.6,2.1-4.7,4.7-4.7c2.6,0,4.7,2.1,4.7,4.7s-2.1,4.7-4.7,4.7C41.1,24.1,39,22,39,19.4z"/>
			</g>
		</g>
	</g>
	<g>
		<path d="M83.6,77.7H6.3V25.2L45,0.1l38.6,25.1L83.6,77.7L83.6,77.7z M11.1,73h67.8V27.7L45,5.7l-33.9,22V73z"/>
	</g>
</g>
</svg>
