<?xml version="1.0" encoding="utf-8"?>
<!-- Generator: Adobe Illustrator 21.0.2, SVG Export Plug-In . SVG Version: 6.00 Build 0)  -->
<svg version="1.1" id="Layer_1" xmlns="http://www.w3.org/2000/svg" xmlns:xlink="http://www.w3.org/1999/xlink" x="0px" y="0px"
	 viewBox="0 0 226.8 226.8" style="enable-background:new 0 0 226.8 226.8;" xml:space="preserve">
<g>
	<path d="M133.9,122.6L133.9,122.6c0-4.1,2.2-7.8,6-9.7c18.7-9.7,31-29.1,30.6-51.5c-0.7-29.5-24.6-54.1-54.1-55.6
		C83.5,4.2,56.7,30.4,56.7,62.5c0,22,12.3,40.7,30.6,50.4c3.7,1.9,6,5.6,6,9.7l0,0c0,4.9-3,9-7.8,10.5
		c-34.3,10.8-60.1,41.4-63.8,78.4c-0.4,5.2,3.4,9.7,8.6,9.7h166.5c4.9,0,9-4.5,8.6-9.3c-3.7-37-29.5-67.6-63.8-78.8
		C136.9,131.5,133.9,127.4,133.9,122.6z"/>
</g>
</svg>
