<?xml version="1.0" encoding="utf-8"?>
<!-- Generator: Adobe Illustrator 21.0.2, SVG Export Plug-In . SVG Version: 6.00 Build 0)  -->
<svg version="1.1" id="Layer_1" xmlns="http://www.w3.org/2000/svg" xmlns:xlink="http://www.w3.org/1999/xlink" x="0px" y="0px"
	 viewBox="0 0 100 125" style="enable-background:new 0 0 100 125;" xml:space="preserve">
<g>
	<path d="M55.5,48.9L55.5,48.9c0-1.1,0.6-2.1,1.6-2.6c5-2.6,8.3-7.8,8.2-13.8c-0.2-7.9-6.6-14.5-14.5-14.9c-8.8-0.4-16,6.6-16,15.2
		c0,5.9,3.3,10.9,8.2,13.5c1,0.5,1.6,1.5,1.6,2.6l0,0c0,1.3-0.8,2.4-2.1,2.8c-9.2,2.9-16.1,11.1-17.1,21c-0.1,1.4,0.9,2.6,2.3,2.6
		h44.6c1.3,0,2.4-1.2,2.3-2.5c-1-9.9-7.9-18.1-17.1-21.1C56.3,51.3,55.5,50.2,55.5,48.9z"/>
</g>
</svg>
