<?xml version="1.0" encoding="utf-8"?>
<!-- Generator: Adobe Illustrator 21.0.2, SVG Export Plug-In . SVG Version: 6.00 Build 0)  -->
<svg version="1.1" id="Layer_1" xmlns="http://www.w3.org/2000/svg" xmlns:xlink="http://www.w3.org/1999/xlink" x="0px" y="0px"
	 viewBox="0 0 226.8 226.8" style="enable-background:new 0 0 226.8 226.8;" xml:space="preserve">
<g>
	<path d="M146.5,204.8c0.4-0.1,0.7-0.6,1.1-0.6c0.1,0,2.1,0.3,1.1-0.8c-0.4-0.5-2.7,0.4-2.7,0.4c-5.1-3-4.8-1-6.4-0.5
		c-3.3,1-1.6,0.8,0.6,2.2c3.8,2.5,2.4-0.8,4.8-1.3C145.6,204,146.1,204.8,146.5,204.8L146.5,204.8z M62.6,69.7
		c0.6,0.2,3.2-2,2.4-2.4c-1.3-0.8-0.4,0-1.1,0.4C63.9,67.7,60.3,68.7,62.6,69.7L62.6,69.7z M55.1,57.3c-0.9,2.1,4.4-1.1,1.3-1.7
		C55.8,55.4,55.4,56.7,55.1,57.3L55.1,57.3z M65.8,67.1c-0.9-1.3,3.2-4.4,2.9-2.4C68.7,65.3,66.5,68.1,65.8,67.1L65.8,67.1z
		 M57.5,45.8c0.4,3,4.5-0.3,1.1-0.9C57.7,44.8,57.3,45,57.5,45.8L57.5,45.8z M70.5,58.4c1.4,0.6,1.2-2.3,0.2-2.7
		C69,55.2,69.2,57.9,70.5,58.4L70.5,58.4z M86.8,86.1c1.8-1.7-3.7-5.8-1.6-1.1C85.5,85.7,86.1,86.8,86.8,86.1L86.8,86.1z M68.8,48
		c-1.4-0.7-1.2,1.9-2.9,0.1c-1-1.1-1-2.6,0.3-2.9c0.9-0.3,0.2,1.3,0.9,0.7c1.6-1.5-1.5-2.4,0.4-3c0.6-0.2,0.6,1.7,1.2,2.1
		c3.1,1.9-0.1-3.6,2.3-4.1c2.7-0.5,1.8,8.1,2.1,8.9c0.3,0.7,0.7,0.1,1.4,0.6c4.4,3.1,3.3-0.8,4.4-1.2c1.2-0.4,3.1-0.2,2.5-1.2
		c-0.5-0.8-0.5,0.6-1.3,0.5c-1-0.1,0.2-0.7-0.7-0.6c-0.8,0-1.2,1.7-2,0.9c-0.4-0.3-0.9-4.6-0.1-4.9c0,0,4.1,2.6,3.4,0.6
		c-0.4-0.9-1,0.3-2.1-0.8c-2.4-2.3,0.2-2.1,0.3-3c0,0-2.6-4.6-0.1-3.7c0.9,0.3,0.4,2.3,1.1,1.9c1-0.6-1.3-2-0.1-2.7
		c1.5-1,0.5,2.2,2.4,0.2c0.2-0.2,0.7,0.5,1,0.4c0.3-0.1-0.1-0.9,0.2-0.9c1.2-0.3,1.9,1.2,2.1,0.4c0.5-2.1-4-1.9-3.2-4.2
		c0.2-0.5,1.3,0.5,1.6,0.1c1.6-2.4-2.1-2.4-1-4.1c0.3-0.4,5.2,0.6,5.3,0.3c0.4-1.2-3.1-0.5-2.4-3.3c0.1-0.6,0.9,0.2,1.2-0.4
		c1-1.6-1-1.5-0.4-2.6c2.1-4.4,1.5-3.2,3.7-1.4c0.6,0.5,1.2-0.4,1.5,0.3c0.4,1-1.6,1.4-0.6,1.8c1.5,0.7,0.6-1.9,2-2.3
		c2.2-0.6-0.1,1.6,1,2.5c1.1,0.9,0.4-1.9,2.4-1.5c0.8,0.2,0.9,0,1.5-0.6c1.8-1.6,1.2-0.5,2.8-0.3c2.3,0.3,3.7-1.7,4.5-1.6
		c0.2,0,1.9,1.4,2.2,0.4c0.3-1,0,0.1-0.3-0.5c-0.6-1.1,2.2-1.7,4.5-0.2c1.3,0.8-1.1,1.7-1,3c0.1,1.1,1.3,0.7,0.8,2.3
		c-0.7,2.2-8.4,8.6-10,10.1c-5,5.1,0.7-3.6-1.4,2.1c-0.7,1.8-3-0.3-4.1,0.8c-0.5,0.5,4.5,0.8,4.9,1.1c0.5,0.3,3.7-1.9,0.6,1.8
		c-1.4,1.6-8.1,1.9-6.2,3.7c1.4,1.3,2.5-3.1,4.4-1.6c1.4,1.1-4,2.4-3,4c1,1.7,2.2-1.6,3.2-2.5c0.5-0.5,1.9,0,2.4-0.2
		c1.4-0.5,4.1-2.3,4.9-2.6c2.9-1.1,1.6,1.9,6.6,0.2c3.1-1,6.4,1.3,9.6,0.3c1.6-0.5,2.6-0.7,3.6,1c2.8,4.6-0.9,6.2-1.8,8.2
		c-1.8,4.1-0.7,8.2-3.6,12c-3.2,4.1-0.8,3.9-4.2,6.6c-1.2,1-7.9,1-6.6,3c1,1.4,2.7-2.1,4.2-1.8c1.7,0.3-0.1,1.8,0.9,2.4
		c1.1,0.7,2.5-0.1,2.8,1.5c0.5,2.8-5.8,0.9-6.9,4c-1.3,3.5-3.9,0.6-7.4,1.4c-0.9,0.2,0.6,1.3,1.8,1c3.3-0.9,5.9,2.1,8.3,0.5
		c1-0.7,0.4-1.6,2.4-1.8c2.3-0.2,1.7,0.7,2.9,1.2c3.7,1.5,4.9,1.5,6.9,4.5c3,4.5,6.6,4.4,6.3,9.3c-0.3,4.6,3.5,10.5,3.6,10.5
		c2.2,7.3,2,4.5,2.3,5.6c0.8,2.1,0,1.3,2.3,1.9c6.2,1.9,1.5-0.1,3.1,0.3c0.5,0.1,0.5,0.5,0.4,1.2c-0.1,0.3-0.5-0.5,0.1-0.8
		c0.8-0.3,1.4,0.1,1.6,0.9c0.2,0.7,5.8,7.9,5.9,8.1c0.2,0.7,1.6-0.1,1.9,0.9c0.4,1.7-1.6,0.8-1.1,3.3c0.6,2.8,5.4,7.3,4.9,8
		c-0.8,1.2-6-2.3-6.5-2.2c-9.5,1.8-0.2,0.1,2,1.8c3.3,2.7,7.4,4.7,8.4,9.6c1.1,5.4-6,6.5-3.9,7.9c2.1,1.5,3.1,3.7,5.3,2.1
		c4.1-2.9-0.5-4.7,6.6-4.7c1.2,0,0.6-0.9,1.3-0.8l0,0l0,0c13.7,3.8,10.4,6.1,10.4,11.6c0,2.6,0.2,5.2,0,7.8
		c-0.1,0.9-0.3,1.3-0.4,1.4c-0.3,0.5-2.8,3.1-3,3.2c-3.2,1.7,2,1.1-2.5,3.9c-2.1,1.3-1.6-2.3-3.7,0.9c-2.2,3.4-2.8-0.8,0.5,0.7
		c0.9,0.4,0.6,1.9,0.4,2.7c-1.1,3.3-7.9,1.8-6.2,3.6c0.7,0.8,3.2-1,3.4,0.2c0.2,1.1-2.1,0.5-1.7,1.7c0.3,1.1,1-0.6,2-0.4
		c0.8,0.2,1.1,1.4,2,1.5c2,0.2,4.3-2.4,7.8-2.1c2.6,0.2-0.2,1,0.4,3.9c0.8,3.3-3.1,3.2-4.7,4.5c-1.6,1.3-0.4,3-1.4,3.3
		c-0.9,0.3-1.7-0.3-2.8,0.1c-0.6,0.2-1.1,1.2-1.8,1.5c-1.5,0.7-3.4,0.7-4.5,1.9c-1.7,1.9-3.6,0.8-5.7,0.4c-6.3-1.3-10.6,3-12.2,1.7
		c-0.8-0.6,0.3-1.3-0.6-1.7c-1.9-1.1-1.6,1.3-2,1.3c-0.8,0,0.1-0.9-0.7-1.3c-0.6-0.4-0.3,1.1-0.8,1.1c-2.3-0.1-2.4-3.2-4.1-2.4
		c-1.1,0.6,1.8,0.6,1.8,1.9c0,0.7-1.2,0.6-2,1c-1.1,0.5-0.3,0.8-1.3,1.6c-0.6,0.5-0.9-0.6-1.6-0.5c-1.2,0.1-3.3,0.9-4.7,1
		c-3.2,0.1-0.1-0.1,0.3,0.9c0.8,2.2-2.2,1.6-3.6,1.3c-5.7-1.4-2.6,1.7-3.3,2.1c-0.9,0.5-3.9-5.2-7.6-4.6c-5.5,0.9-4.6,2.9-8.1,2.2
		c-0.6-0.1-0.3,3.7-0.4,4.1c-0.1,0.4-1,0.6-0.8,0.9c0.4,1.1,1,1.3-0.3,2.2c-1.2,0.8-1,6.6-4.6,1.4c-1.4-2.1-1.9,0.2-3.1-0.7
		c-1.1-0.8-1.3-2.8-1.9-2.6c-2.5,0.5,0.9,1.2,0.3,1.9c-1.1,1.3-1.1-1.2-3.8,0.2c-2.5,1.3-3.8,0-4.3,0.4c-1.7,1.1-0.2,1.7-1.4,2.4
		c-3.8,2.2-2.5,0.8-2.9,0.8c-2.1,0.2-0.2,3-0.9,3.7c-2.1,2.3-3-1.1-3.7-1.6c-3.7-2.3-2.9,1.5-5,1.3c-0.2,0-2.3-1.2-0.8-2.4
		c4.3-3.5,2.3-0.6,4.9-1.5c2.9-1,1.9-2.6,4.9-5.4c0.5-0.5,0.5-2,1-2.4c0.3-0.3,0.2,0.4,0.9,0.4c0.9,0.1-0.1-0.6,0.6-1.2
		c0.3-0.3,1-0.2,1.4-0.6c0.8-0.6,0.2-1.5,1.6-2.4c2.6-1.7,1.7-3.2,2.3-5.8c0.7-3.3,2,0,3.7-1.7c2.1-2.1-0.7-3.4,1.9-4.3
		c1.4-0.4,9-0.8,10.2-0.3c2.8,1.1,2.8-0.2,5.4,0c1.8,0.2,0.8-1.5,1.2-3c0.7-2.4,3.4-3.4,4.8-5.1c0.4-0.5,2.4-4,2.4-4
		c-0.7-0.2-3.4,3.2-8,4.6c-1.4,0.4-2.4,5-7.2,2.9c-3.6-1.5-3.4-4.3-4.2-4.7c-1-0.4-7.3,3.4-6.5,0c0.2-0.8,2.4-0.1,3-0.7
		c0.7-0.7-3.5-0.3-4.3-0.8c-0.6-0.5,1.9-3.1-3.5-1.1c-1.3,0.5-1.2,1.1-1.9,1.7c-0.9,0.8-6.5,1.2-5.4-0.5c0.6-0.9,2.5-0.3,3.7-1.1
		c0.3-0.2,0-0.9-0.3-1c-0.5-0.1-3.5,2.4-4.7,1.1c-1-1,3.5-2.9-0.3-3.6c-1.7-0.3-0.5-1.5,0.6-1.9c1.5-0.6,0.5-1.1,1.7-1.7
		c1-0.5,0.8,0.2,1.6,0.2c2.9,0.1,1.8-1.3,3.4-2.2c0.6-0.4,2.3-0.8,2.9-1.1c7.5-3.5,4.3-5.4,6.4-8.1c0.3-0.3,1.5-0.9,1-1
		c-4-0.6-0.5-4.1-0.7-4.3c-0.5-0.6-1.3-0.6-1.5-1.2c-0.4-1.1,1-2.3,0.2-3.1c-1.2-1.2-4.3-0.1-5,2.1c-0.5,1.4-0.9,0.2-2.1,0.4
		c-0.7,0.2-1.1,1.4-1.7,0.6c-1.5-2.1,5-3.6,5.9-7c1-3.9,2.8-3.2,4.7-3.8c2.4-0.7,1.4-1.4,2.2-2c0.7-0.5,0.9,0.4,1.6,0.6
		c2,0.5,4.9-0.5,5.4-1.3c1.7-2.7,0.6,0.3,0.6,0.3s0.6-0.8,1.3-1.1c3-1.5,3.1,0.5,3.1,0.5c0.2-1.3,0.3-0.6-0.6-1.9
		c-3.2-4.7,2.3-5.7,1.2-6.6c-1.1-1-1.7,0.2-1.9-1.4c-0.4-4.2,0.5-3.2,2.1-4.1c1.4-0.7-0.1-1.1-0.1-1.7c-0.1-1.2,0.9-1,1.2-1.7
		c0.4-1-0.2-3.2-1.4-1.8c-1.4,1.7-1.2-0.3-1.7-0.1c-0.9,0.3-0.3,2.5-1.2,2.7c-2.3,0.4-1.1-2.1-1.4-3.8c-0.1-0.6,0.2,1-0.5,1
		c-2.4-0.1-1.3-2.6-2.5-4.2c-2.1-2.8-4.5-2.8-0.6-8.5c1-1.5,0.3-3.2,1.3-3.7c0.9-0.4,0.4,0.9,1.1-0.1c0.8-1.2,4.5-1.7,3-1.8
		c-7.1-0.7-5.9-0.2-6.8,2c-0.5,1.2-3,0.4-3.5,1.1c-2.7,3.7-2.5,0.9-3.1,1c-0.7,0.1-0.2,1-1,0.7c-0.8-0.2-0.4-1-0.6-1.3
		c-0.2-0.2-2.7-1.4-2.9-1.2c-1.5,1.7,2.7,2,0.4,4.4c-1.4,1.5-7.2-7-7.7-2.3c-0.1,0.9,0.8,2.2,0.8,2.6c0.5,3.1-6-6.7-3.4-7.8
		c0.7-0.3,2,4.7,1.4,0.4c-0.6-4,0.5-2.7,1.6-4.5c0.8-1.2,1.1-3.2,1.8-4.6c0.9-1.7,4.2-3-0.3-5.9c-2.8-1.8-0.3-1.9-0.7-4.5
		c-0.8-4.6,1.8-1.2,3.3-2.4c0.8-0.7-1.5-2.9-3.2-1.8c-1.8,1.1-0.7,1.1-1.2,2.4c-1.2,3.5-1.5-1.1-2.1-1.6c-0.3-0.3,0,1-0.4,1.2
		c-0.6,0.3-0.3-0.6-1-0.4c-0.6,0.1,0,2-0.6,2.1c-1.8,0.3-0.7-3.1-0.7-4.4c0,0-1.7,0.9-1.7,1.1c-0.4,1.7,1.5,3.4,1.5,4.8
		c0,0.5-3.4,6-2.9,9.1c0.3,1.9-2.2,3.2-3.3,2.1c-1.5-1.5,3.2-9.4,2.8-10.5c-0.4-1.1-1.3-0.8-0.8-2.2c0.5-1.5-0.6-0.7-0.5-2.4
		c0.3-3.5,2.6-2.4,2.2-4.9c-0.1-0.6-0.9,0.2-1.1-0.4c-0.8-2.6,1-3.9,2.7-6.5c0.3-0.4-1-3.5,1.7-4.8c1.2-0.6,2.1-2.4,1.8-3.2
		c-0.4-1-0.9,1.2-1.6,2c-6.2,6.9-5.1,4.3-6.6,3.7c-6-2.4,0.4-1.7-0.5-3.1c-0.8-1.2-3.8,1-5-0.2c-0.8-0.8,0.7-1.4,1.6-1.7
		c2.8-1,1.8,2,4.4-1.7c1.2-1.7-4.1,0.3-1.1-3.5c2.7-3.4,1.3,2.6,0.9-1.3c-0.3-2.8,2.6-0.3,3.9-1.1c0.6-0.4-0.4-0.6-1.1-0.8
		c-3.9-1.2,1.6-4,0.8-4c-0.6,0-0.5,0.6-1,0.7c-0.2,0.1-0.5-0.4-0.8-0.3c-1.7,0.3,0.3,0.9-1,2.2c-0.8,0.8-2.1,4.4-3.6,3.6
		c-1.3-0.6,1.2-3.1,1.2-3.2c-1.2-2.6-1.8,0.6-2.3,0.5c-0.8-0.1,0-1.3-0.8-1.3c-1.4,0-0.8,1.3-2.1-0.2c-3.2-3.6-0.6-2-0.7-3.3
		c-0.1-0.9-0.4,0.1-1-0.1C68.8,48.8,69.1,48.1,68.8,48L68.8,48z M170.7,185.3c0.1,1,2.3,1.2,2.6,0.2
		C173.5,184.3,170.5,183.9,170.7,185.3L170.7,185.3z M113.1,141.5c0,0.4-1.1-0.3-1.1,0C112,141.9,113,141.2,113.1,141.5L113.1,141.5
		z M95.2,140.7c-3.7,0.3-1.5,4.1-2.6,3c-0.5-0.5-1-1-1.4-0.3c-0.3,0.5,0.9,0.2,1.9,0.9c1.5,1.2,2.1,4.4,3.2,2.7
		c1.3-2,4.4-2.8,3.8-3.6c-0.5-0.7-0.8,0.5-2,0.1C96.5,143.1,97.6,140.6,95.2,140.7L95.2,140.7z M115.5,143c0.8,0.4,0.7,0.8,1.7,0.6
		C122,142.5,113,141.7,115.5,143L115.5,143z M119.4,122.9c-0.4,0-0.7-0.1-1.1-0.1L119.4,122.9L119.4,122.9z M147.3,124.1
		c1.8-0.1,3.3-1.4,4.8-2.3c0.2-0.1-0.6,0.2-0.8,0c-1.8-1-0.7,0.6-2.6,1.3C147.7,123.7,146.6,124.2,147.3,124.1L147.3,124.1z
		 M58.7,51.3c-0.1,1.4,1.1,2.5,0.4,2.8c-3.3,1.3-2.9-7.4-0.7-6.6c0.7,0.2,1.5,0.8,0.9,1.2c-2.5,2-0.6-2.7,0.3,1
		C59.8,50.9,58.7,50.7,58.7,51.3L58.7,51.3z M60.7,44.7c-0.7,1-2-0.1-2.4-0.8c-0.7-1-1.6,0-2.1-1.2c-1-2.3,7.4-3.2,5.3-0.6
		c-0.5,0.6-1-0.9-1.3-0.1C60,42.7,61.4,43.8,60.7,44.7L60.7,44.7z M74.4,80.8c0,0,1.2,0.3,1.1,0.4c-0.7,0.7-1.8,0.6-2.2,1.4
		c-0.3,0.6-0.7,7.4,4.5-3.6C80,74.3,74.4,79.2,74.4,80.8L74.4,80.8z M86,93.7c-2.8,3.9-6.5-8.3-1.6-6.2C85.3,87.8,87.3,91.8,86,93.7
		L86,93.7z M70.4,83.9c-1.3,0.3,0.1-0.8-1-0.5c-1.8,0.4-2.5,3.9-1.5,4.4c0.8,0.4,1.4-3.3,2.5-2.2c0.6,0.6-0.7,0.5-0.4,1.2
		c1.2,2.9-1.3,3.8,2.1,2.1c3-1.5,1-1.8,0.8-4C72.2,78.6,71.5,83.6,70.4,83.9L70.4,83.9z M113.6,11c-0.6-2.1-1.6,0.7-2.6-0.9
		c-0.5-0.8,1.4-0.9,0.4-2c-4.1-4.5-5,4.1-2.9,3.3c0.4-0.1,0.3-1.3,0.4-1.3c0.8,0.3-0.6,1.4,0.3,2.2c1.5,1.2,1.5-0.7,2.8-0.5
		c0.8,0.1,0.6,1.4,2.1,1.2c1.3-0.2,2.6-1.4,1.5-2.1C114.6,10.2,114,12.4,113.6,11L113.6,11z M110.5,6.8c-0.3-1.1,1.2-1.5,1.7-0.8
		C113.1,7.4,110.9,8.2,110.5,6.8L110.5,6.8z M110.2,15.4c0.3-0.7-2.1-4.4-3.1-2.9C106.8,13.1,109.3,17.4,110.2,15.4L110.2,15.4z
		 M90.1,126.2c4.2,0.4,8.3-6.2,5.6-8.3c-2.2-1.6-2.8,2.7-3.5,3.5c-1,1.2-1.1,0-1.5,2C90.5,124.7,88.8,126.1,90.1,126.2L90.1,126.2z
		 M74,68.9c1.2,0.7-2,0.3-1.8,2.8c0,0.5,1.6-0.3,1.4,0.1c-0.8,2-2.8,0.4-3.4,0.8c-0.9,0.7-0.6,2,3,0.9c7.2-2.2-3.2,0,3.1-0.2
		c1.4-0.1,0.6-1.1,1.6-1.9c3-2.4-2.6-3.3-2.9-3.5c-1.4-1-1.4-3.6-3.5-2.5c-0.8,0.4-1.7,1.6-1.3,2.4C70.7,68.5,73.2,68.4,74,68.9
		L74,68.9z M75.3,112.3c2-2.3,3.4-1.5,3.1-3.6c-0.1-0.7-1.3-1.9-1.2-0.6c0,0.4,0.8,0.2,0,0.4c-0.3,0.1-0.9-2.2-2.9-4.1
		c-0.6-0.5,1-0.4-0.1-1.6c-0.6-0.7-0.7,0.3-0.9-0.3c-0.4-1,1.6-4.2-1.9-3.6c-1.5,0.3-1.6-1.3-4.9-0.4c-2.1,0.6-1.2,1.7-3.6,1.3
		c-0.6-0.1-0.9-1-1.7-0.5c-1.6,1,0.3,4.7-2.5,3c-4.1-2.5-4.2,4.3-4.3,4.4c-1.7,1.9-1.3,3-1.8,2.7c-1.4-0.9-1.2,0.9-2.6,0.8
		c-0.7,0-0.6-0.9-1.3-0.8c-0.2,0.1-2.1,1.1,0.2,2.4c0.9,0.5,3.5-0.4,0.2,1.6c-2,1.2-1.9-1.5-3.8,1.6c-1,1.6,0.1,2.9,1.3,3.8
		c2.4,1.7,0.3,2.6,1.9,3.1c0.6,0.2,1.2-0.3,2,0.2c0.5,0.3,0.8,1.6,1.3,1.7c1.1,0.3,1.1-0.8,2-0.5c3.2,1-1.1,1.3,1.6-0.3
		c0.5-0.3,0.5,1,0.5,0.9c0.9-0.6,0-1,0.7-1.8c0.5-0.6,1.2-0.2,1.4-0.7c0.3-1-1.3-0.6-0.6-1.8c0.5-0.9,0.4-0.1,1.2-0.9
		c0.8-0.8,0.2-2,1.6-1.2c2.2,1.1,1.1,4.3,2.9,5.3c0.9,0.5,0.9-0.6,1.4,0.1c1.4,1.9-1.6,1.9,0.3,3.4c1.1,0.9,1.1-0.5,1.9-0.6
		c1.3-0.2-0.4,1.2,1.6,0.3c1.4-0.7-1.5-1.8,3.8,0.1c0.4,0.1-0.3,0.6,0.1,0.8c3,1.1,3.2-4.4,3.8-4.8c1.1-0.6,2,0.6,2.7,0.2
		c0,0,2.5-3.7,2.6-4.1c0.4-1.7-0.4-6.8-2.4-6.9c-2.4-0.2-3.8,2.7-3.8,1.6C75.2,112.8,75.2,112.4,75.3,112.3L75.3,112.3z M66.7,33.4
		c0.8,0.4-0.1,1.6,1.1,1.9c1,0.3,1.9-0.3,2-0.9c0-0.7-0.9-0.3-0.7-0.9c0.2-0.5,3,0.6,1.7-1.8c-1.9-3.9-0.5,3.1-0.1-2.3
		c0.1-1.3,2.8-2.4,2.5-3.7c-0.3-1.3,1.4-3.2-0.8-3.9c-1.7-0.6-2.3,2.8-4.8,3.4c-3.8,1-0.8,3.5-1.4,3.8c-1.6,1,0-2.3-1.7-1.5
		c-1.2,0.6,1.6,1.8,0.2,2.7c-0.9,0.6-0.1-3.6-2-2.4c-0.9,0.5,0.4,0.7-0.3,1.1c-2.4,1.5,0.5,2.2,0.7,3.3c0.1,0.9-1.4,0.3-1.2,1.3
		c0.3,1.3,2.6,0.6,2.6,1.6c0,1.1-2.9,1.7-3.2,2.3c-0.4,0.9,1.1,2.7,2.1,2.1c3.4-2.2,2.1-3.3,2.3-3.4c0.9-0.7,2.4,0.6,0.9-1.7
		C66.3,34,66,33.1,66.7,33.4z"/>
</g>
</svg>
