<?xml version="1.0" encoding="utf-8"?>
<!-- Generator: Adobe Illustrator 21.0.2, SVG Export Plug-In . SVG Version: 6.00 Build 0)  -->
<svg version="1.1" id="Layer_1" xmlns="http://www.w3.org/2000/svg" xmlns:xlink="http://www.w3.org/1999/xlink" x="0px" y="0px"
	 viewBox="0 0 100 125" style="enable-background:new 0 0 100 125;" xml:space="preserve">
<g>
	<path d="M63.8,88c0.2,0,0.3-0.3,0.5-0.2c0,0,0.9,0.1,0.5-0.3c-0.2-0.2-1.1,0.2-1.1,0.2c-2.1-1.3-2-0.4-2.7-0.2
		c-1.4,0.4-0.7,0.3,0.3,0.9c1.6,1,1-0.4,2-0.5C63.4,87.7,63.6,88,63.8,88L63.8,88z M28.9,31.8c0.2,0.1,1.3-0.8,1-1
		c-0.5-0.3-0.1,0-0.4,0.2C29.4,31,27.9,31.4,28.9,31.8L28.9,31.8z M25.8,26.7c-0.4,0.9,1.8-0.4,0.5-0.7
		C26.1,25.9,25.9,26.4,25.8,26.7L25.8,26.7z M30.2,30.7c-0.4-0.5,1.3-1.8,1.2-1C31.4,30,30.5,31.2,30.2,30.7L30.2,30.7z M26.7,21.9
		c0.2,1.2,1.9-0.1,0.4-0.4C26.8,21.5,26.7,21.6,26.7,21.9L26.7,21.9z M32.2,27.1c0.6,0.3,0.5-1,0.1-1.1
		C31.5,25.8,31.6,26.9,32.2,27.1L32.2,27.1z M39,38.7c0.7-0.7-1.5-2.4-0.7-0.5C38.4,38.5,38.7,38.9,39,38.7L39,38.7z M31.5,22.8
		c-0.6-0.3-0.5,0.8-1.2,0c-0.4-0.5-0.4-1.1,0.1-1.2c0.4-0.1,0.1,0.5,0.4,0.3c0.7-0.6-0.6-1,0.2-1.3c0.3-0.1,0.2,0.7,0.5,0.9
		c1.3,0.8,0-1.5,1-1.7c1.1-0.2,0.7,3.4,0.9,3.7c0.1,0.3,0.3,0,0.6,0.2c1.8,1.3,1.4-0.3,1.8-0.5c0.5-0.2,1.3-0.1,1-0.5
		c-0.2-0.3-0.2,0.2-0.5,0.2c-0.4,0,0.1-0.3-0.3-0.3c-0.3,0-0.5,0.7-0.8,0.4c-0.1-0.1-0.4-1.9,0-2c0,0,1.7,1.1,1.4,0.3
		C36.3,21,36,21.5,35.5,21c-1-1,0.1-0.9,0.1-1.3c0,0-1.1-1.9,0-1.5c0.4,0.1,0.2,1,0.5,0.8c0.4-0.3-0.5-0.8-0.1-1.1
		c0.6-0.4,0.2,0.9,1,0.1c0.1-0.1,0.3,0.2,0.4,0.2c0.1-0.1,0-0.4,0.1-0.4c0.5-0.1,0.8,0.5,0.9,0.2c0.2-0.9-1.7-0.8-1.3-1.8
		c0.1-0.2,0.5,0.2,0.7,0c0.7-1-0.9-1-0.4-1.7c0.1-0.2,2.2,0.2,2.2,0.1c0.2-0.5-1.3-0.2-1-1.4c0.1-0.3,0.4,0.1,0.5-0.1
		c0.4-0.7-0.4-0.6-0.2-1.1c0.9-1.8,0.6-1.3,1.5-0.6c0.3,0.2,0.5-0.2,0.6,0.1c0.2,0.4-0.7,0.6-0.2,0.8c0.6,0.3,0.3-0.8,0.8-1
		c0.9-0.3,0,0.7,0.4,1c0.4,0.4,0.2-0.8,1-0.6c0.3,0.1,0.4,0,0.6-0.2c0.7-0.7,0.5-0.2,1.2-0.1c0.9,0.1,1.5-0.7,1.9-0.7
		c0.1,0,0.8,0.6,0.9,0.2c0.1-0.4,0,0.1-0.1-0.2c-0.2-0.5,0.9-0.7,1.9-0.1c0.5,0.3-0.5,0.7-0.4,1.2c0,0.5,0.5,0.3,0.3,0.9
		c-0.3,0.9-3.5,3.6-4.1,4.2c-2.1,2.1,0.3-1.5-0.6,0.9c-0.3,0.7-1.2-0.1-1.7,0.3c-0.2,0.2,1.9,0.4,2,0.4c0.2,0.1,1.5-0.8,0.2,0.7
		c-0.6,0.7-3.4,0.8-2.6,1.6c0.6,0.5,1-1.3,1.8-0.7c0.6,0.5-1.6,1-1.2,1.7c0.4,0.7,0.9-0.7,1.3-1c0.2-0.2,0.8,0,1-0.1
		c0.6-0.2,1.7-1,2-1.1c1.2-0.5,0.7,0.8,2.7,0.1c1.3-0.4,2.6,0.5,4,0.1c0.7-0.2,1.1-0.3,1.5,0.4c1.2,1.9-0.4,2.6-0.7,3.4
		c-0.7,1.7-0.3,3.4-1.5,5c-1.3,1.7-0.3,1.6-1.8,2.8c-0.5,0.4-3.3,0.4-2.7,1.2c0.4,0.6,1.1-0.9,1.8-0.8c0.7,0.1,0,0.8,0.4,1
		c0.5,0.3,1-0.1,1.1,0.6c0.2,1.2-2.4,0.4-2.9,1.7c-0.5,1.5-1.6,0.3-3.1,0.6c-0.4,0.1,0.3,0.5,0.7,0.4c1.4-0.4,2.5,0.9,3.4,0.2
		c0.4-0.3,0.2-0.6,1-0.7c0.9-0.1,0.7,0.3,1.2,0.5c1.5,0.6,2,0.6,2.9,1.9c1.2,1.9,2.8,1.8,2.6,3.9c-0.1,1.9,1.5,4.4,1.5,4.4
		c0.9,3,0.8,1.9,1,2.3c0.3,0.9,0,0.5,1,0.8c2.6,0.8,0.6,0,1.3,0.1c0.2,0.1,0.2,0.2,0.2,0.5c0,0.1-0.2-0.2,0.1-0.3
		c0.3-0.1,0.6,0,0.7,0.4c0.1,0.3,2.4,3.3,2.4,3.4c0.1,0.3,0.7,0,0.8,0.4c0.2,0.7-0.7,0.3-0.4,1.4c0.2,1.2,2.2,3,2,3.3
		c-0.3,0.5-2.5-1-2.7-0.9c-4,0.7-0.1,0,0.8,0.8c1.4,1.1,3.1,2,3.5,4c0.4,2.2-2.5,2.7-1.6,3.3c0.9,0.6,1.3,1.5,2.2,0.9
		c1.7-1.2-0.2-2,2.7-2c0.5,0,0.3-0.4,0.6-0.3l0,0l0,0c5.7,1.6,4.3,2.5,4.3,4.8c0,1.1,0.1,2.2,0,3.3c0,0.4-0.1,0.5-0.2,0.6
		c-0.1,0.2-1.2,1.3-1.3,1.3c-1.3,0.7,0.8,0.5-1,1.6c-0.9,0.5-0.7-1-1.5,0.4c-0.9,1.4-1.2-0.3,0.2,0.3c0.4,0.2,0.3,0.8,0.2,1.1
		c-0.4,1.4-3.3,0.7-2.6,1.5c0.3,0.3,1.3-0.4,1.4,0.1c0.1,0.5-0.9,0.2-0.7,0.7c0.1,0.5,0.4-0.2,0.8-0.2c0.3,0.1,0.4,0.6,0.8,0.6
		c0.8,0.1,1.8-1,3.3-0.9c1.1,0.1-0.1,0.4,0.2,1.6c0.3,1.4-1.3,1.3-2,1.9c-0.7,0.5-0.2,1.2-0.6,1.4c-0.4,0.1-0.7-0.1-1.2,0
		c-0.3,0.1-0.5,0.5-0.7,0.6c-0.6,0.3-1.4,0.3-1.9,0.8c-0.7,0.8-1.5,0.3-2.4,0.1c-2.6-0.6-4.4,1.2-5.1,0.7c-0.3-0.3,0.1-0.5-0.2-0.7
		c-0.8-0.5-0.7,0.6-0.8,0.6c-0.3,0,0-0.4-0.3-0.5c-0.3-0.2-0.1,0.5-0.3,0.5c-1,0-1-1.3-1.7-1c-0.5,0.2,0.8,0.2,0.7,0.8
		c0,0.3-0.5,0.3-0.8,0.4c-0.5,0.2-0.1,0.3-0.5,0.6c-0.3,0.2-0.4-0.3-0.7-0.2c-0.5,0.1-1.4,0.4-1.9,0.4c-1.3,0.1,0,0,0.1,0.4
		c0.3,0.9-0.9,0.7-1.5,0.5c-2.4-0.6-1.1,0.7-1.4,0.9c-0.4,0.2-1.6-2.1-3.1-1.9c-2.3,0.4-1.9,1.2-3.3,0.9c-0.2,0-0.1,1.5-0.2,1.7
		c0,0.2-0.4,0.2-0.4,0.4c0.2,0.4,0.4,0.6-0.1,0.9c-0.5,0.3-0.4,2.7-1.9,0.6c-0.6-0.9-0.8,0.1-1.3-0.3c-0.5-0.3-0.5-1.1-0.8-1.1
		c-1,0.2,0.4,0.5,0.1,0.8c-0.5,0.5-0.5-0.5-1.6,0.1c-1.1,0.5-1.6,0-1.8,0.2c-0.7,0.5-0.1,0.7-0.6,1c-1.6,0.9-1,0.3-1.2,0.3
		c-0.9,0.1-0.1,1.2-0.4,1.5c-0.9,0.9-1.2-0.5-1.5-0.6c-1.5-1-1.2,0.6-2.1,0.5c-0.1,0-0.9-0.5-0.3-1c1.8-1.5,0.9-0.2,2-0.6
		c1.2-0.4,0.8-1.1,2-2.2c0.2-0.2,0.2-0.8,0.4-1c0.1-0.1,0.1,0.1,0.4,0.2c0.4,0,0-0.2,0.3-0.5c0.1-0.1,0.4-0.1,0.6-0.2
		c0.3-0.2,0.1-0.6,0.7-1c1.1-0.7,0.7-1.3,0.9-2.4c0.3-1.4,0.8,0,1.6-0.7c0.9-0.9-0.3-1.4,0.8-1.8c0.6-0.2,3.8-0.3,4.3-0.1
		c1.2,0.4,1.1-0.1,2.3,0c0.8,0.1,0.3-0.6,0.5-1.3c0.3-1,1.4-1.4,2-2.1c0.2-0.2,1-1.7,1-1.7c-0.3-0.1-1.4,1.3-3.3,1.9
		c-0.6,0.2-1,2.1-3,1.2c-1.5-0.6-1.4-1.8-1.7-2c-0.4-0.2-3.1,1.4-2.7,0c0.1-0.3,1,0,1.3-0.3c0.3-0.3-1.5-0.1-1.8-0.3
		c-0.3-0.2,0.8-1.3-1.5-0.5c-0.6,0.2-0.5,0.5-0.8,0.7c-0.4,0.3-2.7,0.5-2.2-0.2c0.3-0.4,1.1-0.1,1.5-0.4c0.1-0.1,0-0.4-0.1-0.4
		c-0.2,0-1.4,1-1.9,0.5c-0.4-0.4,1.4-1.2-0.1-1.5c-0.7-0.1-0.2-0.6,0.2-0.8c0.6-0.3,0.2-0.4,0.7-0.7c0.4-0.2,0.3,0.1,0.6,0.1
		c1.2,0,0.8-0.5,1.4-0.9c0.2-0.1,1-0.3,1.2-0.4c3.1-1.5,1.8-2.2,2.7-3.4c0.1-0.1,0.6-0.4,0.4-0.4c-1.6-0.3-0.2-1.7-0.3-1.8
		c-0.2-0.3-0.6-0.3-0.6-0.5c-0.2-0.5,0.4-1,0.1-1.3c-0.5-0.5-1.8,0-2.1,0.9c-0.2,0.6-0.4,0.1-0.9,0.2c-0.3,0.1-0.5,0.6-0.7,0.3
		c-0.6-0.9,2.1-1.5,2.5-2.9c0.4-1.6,1.2-1.3,2-1.6c1-0.3,0.6-0.6,0.9-0.8c0.3-0.2,0.4,0.2,0.7,0.2c0.8,0.2,2-0.2,2.2-0.5
		c0.7-1.1,0.2,0.1,0.2,0.1s0.3-0.3,0.6-0.5c1.3-0.6,1.3,0.2,1.3,0.2c0.1-0.5,0.1-0.2-0.3-0.8c-1.3-2,1-2.4,0.5-2.8
		c-0.4-0.4-0.7,0.1-0.8-0.6c-0.2-1.8,0.2-1.4,0.9-1.7c0.6-0.3,0-0.4-0.1-0.7c0-0.5,0.4-0.4,0.5-0.7c0.2-0.4-0.1-1.3-0.6-0.7
		c-0.6,0.7-0.5-0.1-0.7,0c-0.4,0.1-0.1,1-0.5,1.1c-1,0.2-0.5-0.9-0.6-1.6c0-0.3,0.1,0.4-0.2,0.4c-1,0-0.5-1.1-1.1-1.8
		C47,51,45.9,51,47.6,48.6c0.4-0.6,0.1-1.3,0.6-1.5c0.4-0.2,0.2,0.4,0.4,0c0.3-0.5,1.9-0.7,1.3-0.8c-3-0.3-2.5-0.1-2.8,0.8
		c-0.2,0.5-1.2,0.2-1.4,0.5c-1.1,1.5-1,0.4-1.3,0.4c-0.3,0-0.1,0.4-0.4,0.3c-0.3-0.1-0.2-0.4-0.3-0.5c-0.1-0.1-1.1-0.6-1.2-0.5
		c-0.6,0.7,1.1,0.8,0.2,1.8c-0.6,0.6-3-2.9-3.2-0.9c0,0.4,0.3,0.9,0.3,1.1c0.2,1.3-2.5-2.8-1.4-3.2c0.3-0.1,0.8,1.9,0.6,0.2
		c-0.2-1.7,0.2-1.1,0.7-1.9c0.3-0.5,0.4-1.3,0.7-1.9c0.4-0.7,1.8-1.2-0.1-2.5c-1.2-0.8-0.1-0.8-0.3-1.9c-0.3-1.9,0.8-0.5,1.4-1
		c0.3-0.3-0.6-1.2-1.3-0.8c-0.7,0.5-0.3,0.5-0.5,1c-0.5,1.5-0.6-0.4-0.9-0.7c-0.1-0.1,0,0.4-0.1,0.5c-0.3,0.1-0.1-0.2-0.4-0.2
		c-0.2,0.1,0,0.8-0.2,0.9c-0.8,0.1-0.3-1.3-0.3-1.8c0,0-0.7,0.4-0.7,0.4c-0.2,0.7,0.6,1.4,0.6,2c0,0.2-1.4,2.5-1.2,3.8
		c0.1,0.8-0.9,1.3-1.4,0.9c-0.6-0.6,1.3-3.9,1.2-4.4c-0.2-0.5-0.5-0.3-0.4-0.9c0.2-0.6-0.2-0.3-0.2-1c0.1-1.4,1.1-1,0.9-2
		c0-0.3-0.4,0.1-0.4-0.2c-0.3-1.1,0.4-1.6,1.1-2.7c0.1-0.2-0.4-1.4,0.7-2c0.5-0.2,0.9-1,0.7-1.3c-0.2-0.4-0.4,0.5-0.7,0.8
		c-2.6,2.9-2.1,1.8-2.8,1.5c-2.5-1,0.2-0.7-0.2-1.3c-0.3-0.5-1.6,0.4-2.1-0.1c-0.3-0.3,0.3-0.6,0.6-0.7c1.2-0.4,0.8,0.8,1.8-0.7
		c0.5-0.7-1.7,0.1-0.4-1.4c1.1-1.4,0.5,1.1,0.4-0.6C35,25,36.2,26,36.7,25.7c0.2-0.2-0.1-0.2-0.5-0.3c-1.6-0.5,0.7-1.7,0.3-1.7
		c-0.3,0-0.2,0.2-0.4,0.3c-0.1,0-0.2-0.1-0.3-0.1c-0.7,0.1,0.1,0.4-0.4,0.9c-0.3,0.3-0.9,1.8-1.5,1.5C33.4,26,34.4,25,34.4,25
		c-0.5-1.1-0.8,0.2-0.9,0.2c-0.3,0,0-0.5-0.3-0.5c-0.6,0-0.3,0.5-0.9-0.1c-1.4-1.5-0.2-0.8-0.3-1.4c0-0.4-0.2,0-0.4,0
		C31.4,23.1,31.6,22.9,31.5,22.8L31.5,22.8z M73.8,79.9c0.1,0.4,1,0.5,1.1,0.1C75,79.5,73.8,79.3,73.8,79.9L73.8,79.9z M49.9,61.7
		c0,0.1-0.5-0.1-0.4,0C49.4,61.9,49.9,61.6,49.9,61.7L49.9,61.7z M42.4,61.4c-1.5,0.1-0.6,1.7-1.1,1.2c-0.2-0.2-0.4-0.4-0.6-0.1
		c-0.1,0.2,0.4,0.1,0.8,0.4c0.6,0.5,0.9,1.8,1.3,1.1c0.5-0.8,1.8-1.1,1.6-1.5c-0.2-0.3-0.3,0.2-0.8,0.1C43,62.4,43.4,61.3,42.4,61.4
		L42.4,61.4z M50.9,62.3c0.3,0.2,0.3,0.3,0.7,0.2C53.6,62.1,49.8,61.8,50.9,62.3L50.9,62.3z M52.5,54c-0.2,0-0.3,0-0.5,0L52.5,54
		L52.5,54z M64.1,54.5c0.7,0,1.4-0.6,2-1c0.1-0.1-0.2,0.1-0.3,0c-0.8-0.4-0.3,0.2-1.1,0.6C64.3,54.3,63.8,54.5,64.1,54.5L64.1,54.5z
		 M27.2,24.2c0,0.6,0.4,1,0.2,1.2c-1.4,0.5-1.2-3.1-0.3-2.7c0.3,0.1,0.6,0.3,0.4,0.5c-1,0.8-0.3-1.1,0.1,0.4
		C27.7,24,27.2,23.9,27.2,24.2L27.2,24.2z M28.1,21.4c-0.3,0.4-0.8-0.1-1-0.3c-0.3-0.4-0.7,0-0.9-0.5c-0.4-1,3.1-1.3,2.2-0.2
		c-0.2,0.3-0.4-0.4-0.5,0C27.8,20.6,28.4,21.1,28.1,21.4L28.1,21.4z M33.8,36.5c0,0,0.5,0.1,0.5,0.2c-0.3,0.3-0.8,0.2-0.9,0.6
		c-0.1,0.2-0.3,3.1,1.9-1.5C36.1,33.7,33.8,35.8,33.8,36.5L33.8,36.5z M38.6,41.8c-1.1,1.6-2.7-3.5-0.6-2.6
		C38.3,39.3,39.2,41,38.6,41.8L38.6,41.8z M32.1,37.7c-0.5,0.1,0-0.3-0.4-0.2c-0.7,0.2-1,1.6-0.6,1.9c0.3,0.2,0.6-1.4,1-0.9
		c0.2,0.2-0.3,0.2-0.2,0.5c0.5,1.2-0.5,1.6,0.9,0.9c1.3-0.6,0.4-0.8,0.3-1.7C32.9,35.5,32.6,37.6,32.1,37.7L32.1,37.7z M50.1,7.4
		C49.8,6.5,49.4,7.7,49,7c-0.2-0.3,0.6-0.4,0.2-0.9c-1.7-1.9-2.1,1.7-1.2,1.4C48.1,7.5,48.1,7,48.2,7c0.3,0.1-0.3,0.6,0.1,0.9
		c0.6,0.5,0.6-0.3,1.2-0.2c0.3,0.1,0.3,0.6,0.9,0.5c0.5-0.1,1.1-0.6,0.6-0.9C50.5,7.1,50.2,8,50.1,7.4L50.1,7.4z M48.8,5.7
		c-0.1-0.4,0.5-0.6,0.7-0.3C49.9,5.9,49,6.2,48.8,5.7L48.8,5.7z M48.7,9.3c0.1-0.3-0.9-1.8-1.3-1.2C47.3,8.3,48.3,10.1,48.7,9.3
		L48.7,9.3z M40.3,55.3c1.7,0.2,3.5-2.6,2.3-3.4c-0.9-0.7-1.2,1.1-1.5,1.5c-0.4,0.5-0.5,0-0.6,0.9C40.5,54.7,39.8,55.3,40.3,55.3
		L40.3,55.3z M33.6,31.5c0.5,0.3-0.8,0.1-0.7,1.2c0,0.2,0.7-0.1,0.6,0c-0.3,0.8-1.2,0.1-1.4,0.3c-0.4,0.3-0.2,0.8,1.3,0.4
		c3-0.9-1.3,0,1.3-0.1c0.6,0,0.2-0.5,0.6-0.8c1.2-1-1.1-1.4-1.2-1.4c-0.6-0.4-0.6-1.5-1.5-1c-0.3,0.2-0.7,0.7-0.5,1
		C32.2,31.3,33.3,31.3,33.6,31.5L33.6,31.5z M34.2,49.6c0.8-1,1.4-0.6,1.3-1.5c0-0.3-0.5-0.8-0.5-0.3c0,0.2,0.3,0.1,0,0.2
		c-0.1,0-0.4-0.9-1.2-1.7c-0.2-0.2,0.4-0.2,0-0.7c-0.3-0.3-0.3,0.1-0.4-0.1c-0.2-0.4,0.7-1.7-0.8-1.5c-0.6,0.1-0.7-0.6-2.1-0.2
		C29.6,44,30,44.5,29,44.3c-0.2,0-0.4-0.4-0.7-0.2c-0.6,0.4,0.1,2-1,1.3c-1.7-1.1-1.8,1.8-1.8,1.9c-0.7,0.8-0.5,1.2-0.8,1.1
		c-0.6-0.4-0.5,0.4-1.1,0.3c-0.3,0-0.2-0.4-0.5-0.3c-0.1,0-0.9,0.4,0.1,1c0.4,0.2,1.5-0.2,0.1,0.7c-0.8,0.5-0.8-0.6-1.6,0.7
		c-0.4,0.6,0,1.2,0.6,1.6c1,0.7,0.1,1.1,0.8,1.3c0.3,0.1,0.5-0.1,0.8,0.1c0.2,0.1,0.3,0.6,0.5,0.7c0.5,0.1,0.4-0.3,0.8-0.2
		c1.4,0.4-0.4,0.5,0.7-0.1c0.2-0.1,0.2,0.4,0.2,0.4c0.4-0.3,0-0.4,0.3-0.7c0.2-0.2,0.5-0.1,0.6-0.3c0.1-0.4-0.5-0.3-0.3-0.8
		c0.2-0.4,0.2,0,0.5-0.4c0.4-0.3,0.1-0.8,0.7-0.5c0.9,0.5,0.4,1.8,1.2,2.2c0.4,0.2,0.4-0.3,0.6,0c0.6,0.8-0.7,0.8,0.1,1.4
		c0.5,0.4,0.5-0.2,0.8-0.3c0.6-0.1-0.2,0.5,0.7,0.1c0.6-0.3-0.6-0.7,1.6,0c0.2,0.1-0.1,0.3,0.1,0.3c1.3,0.5,1.3-1.8,1.6-2
		c0.4-0.3,0.8,0.2,1.1,0.1c0,0,1-1.5,1.1-1.7c0.2-0.7-0.1-2.8-1-2.9c-1-0.1-1.6,1.1-1.6,0.7C34.1,49.8,34.1,49.6,34.2,49.6
		L34.2,49.6z M30.6,16.7c0.3,0.2-0.1,0.6,0.4,0.8c0.4,0.1,0.8-0.1,0.8-0.4c0-0.3-0.4-0.1-0.3-0.4c0.1-0.2,1.2,0.3,0.7-0.8
		c-0.8-1.6-0.2,1.3,0-0.9c0-0.5,1.2-1,1-1.5c-0.1-0.5,0.6-1.3-0.3-1.6c-0.7-0.2-1,1.2-2,1.4c-1.6,0.4-0.3,1.4-0.6,1.6
		c-0.7,0.4,0-1-0.7-0.6c-0.5,0.2,0.7,0.7,0.1,1.1c-0.4,0.3,0-1.5-0.8-1c-0.4,0.2,0.2,0.3-0.1,0.5c-1,0.6,0.2,0.9,0.3,1.4
		c0.1,0.4-0.6,0.1-0.5,0.5c0.1,0.5,1.1,0.2,1.1,0.7c0,0.4-1.2,0.7-1.3,1c-0.2,0.4,0.5,1.1,0.9,0.9c1.4-0.9,0.9-1.4,1-1.4
		c0.4-0.3,1,0.2,0.4-0.7C30.4,17,30.3,16.6,30.6,16.7z"/>
</g>
</svg>
