<svg width="134" height="134" xmlns="http://www.w3.org/2000/svg" xmlns:xlink="http://www.w3.org/1999/xlink"><defs><circle id="a" cx="54" cy="54" r="54"/></defs><g transform="translate(3 3)" fill="none" fill-rule="evenodd"><g transform="translate(10 10)"><mask id="b" fill="#fff"><use xlink:href="#a"/></mask><path d="M42.108 112l-.1-46.395H-6V42.52h48.151v-45.36h22.95v45.335H116V65.52H65.076V112H42.108zM72.334-2.914L112.99-3v15.212l-40.657 20.18V-2.914zm2.76 38.097l34.424-17.617v8.968l-17.195 8.65h-17.23zm-2.662 41.489l31.777 15.663v18.598H72.432V76.672zM34.847 32.56L5.136 17.657V-2.664h29.71v35.225zm-19.539 2.803H-1.854v-9.01l18.068 9.01h-.906zm97.207 49.106L90.662 73.713h21.853V84.47zm-77.537 24.895l-36.238-.208V94.435L34.978 75.99v33.374zM32.7 73.75l-37.936 19.36v-9.425l20.329-9.935H32.7z" fill="#000" mask="url(#b)"/></g><circle stroke="#000" stroke-width="6" cx="64" cy="64" r="64"/></g></svg>